<svg version="1.2" xmlns="http://www.w3.org/2000/svg" viewBox="0 0 1545 589" width="1545" height="589"><style>.a{fill:#f48120}.b{fill:#fbce20}.c{fill:#01579b}</style><path fill-rule="evenodd" class="a" d="m1176 257.5l-118.5-18.2 108.4-54.8c1.6-0.8 2.3-2.6 1.8-4.3-0.6-1.7-2.2-2.7-4-2.4l-120.3 18.7 86.4-85.5c1.3-1.3 1.4-3.2 0.4-4.6-1-1.5-3-1.9-4.5-1.1l-107.9 55.3 54.4-107.4c0.7-1.6 0.3-3.5-1.1-4.5-1.5-1-3.4-0.9-4.6 0.4l-85.4 86.3 20-120.1c0.3-1.7-0.7-3.4-2.4-4-1.6-0.5-3.5 0.2-4.3 1.8l-55.8 109-18.4-118.6c-0.3-1.7-1.8-3-3.5-3-1.8 0-3.3 1.3-3.5 3l-18.6 118.5-55.3-109.4c-0.8-1.6-2.7-2.3-4.3-1.8-1.7 0.5-2.7 2.2-2.4 4l19.9 121.6-86.5-88.4c-1.2-1.3-3.1-1.4-4.6-0.4-1.4 1-1.9 2.9-1.1 4.5l56.3 109.8-110.2-57c-1.6-0.8-3.5-0.3-4.5 1.1-1.1 1.4-0.9 3.4 0.3 4.6l88.6 86.4-122.5-19.9c-1.7-0.3-3.4 0.8-4 2.4-0.5 1.7 0.2 3.5 1.8 4.3l110.1 55.2-121.4 18.5c-1.8 0.3-3.2 2-3 3.8 0.1 1.9 1.7 3.3 3.5 3.3h520.1c1.9 0 3.4-1.4 3.6-3.3 0.1-1.8-1.2-3.5-3-3.8z"/><path fill-rule="evenodd" class="b" d="m1030.6 264.9c0.1-1.4-0.6-2.3-1.6-2.5l-50.7-7.8 46.4-23.4c0.8-0.4 1.2-1.4 1-2.2-0.3-0.9-1.2-1.5-2.1-1.3l-51.5 8 37-36.6c0.6-0.7 0.7-1.7 0.2-2.4-0.5-0.8-1.5-1-2.4-0.6l-46.2 23.7 23.3-46c0.4-0.8 0.1-1.8-0.6-2.3-0.7-0.6-1.8-0.5-2.4 0.2l-36.5 36.9 8.6-51.4c0.1-0.9-0.4-1.8-1.3-2.1-0.9-0.3-1.8 0.1-2.2 1l-23.9 46.7-7.9-50.8c-0.2-0.9-0.9-1.6-1.9-1.6-0.8 0-1.6 0.7-1.8 1.6l-7.9 50.7-23.7-46.9c-0.5-0.8-1.4-1.2-2.3-0.9-0.8 0.3-1.4 1.2-1.2 2.1l8.5 52.1-37-37.9c-0.6-0.7-1.7-0.8-2.4-0.2-0.7 0.5-1 1.5-0.6 2.3l24.1 47.1-47.2-24.5c-0.8-0.4-1.8-0.1-2.3 0.6-0.6 0.8-0.5 1.8 0.2 2.4l37.9 37-52.5-8.5c-0.9-0.1-1.8 0.4-2 1.3-0.3 0.8 0.1 1.8 0.9 2.2l47.1 23.6-51.9 7.9c-1 0.2-1.7 1.1-1.6 2.5z"/><path fill-rule="evenodd" class="c" d="m189.6 447.3c0 19.6 0.8 38.9 3.2 49.9 0.3 1 0 2.1-0.6 3-0.7 0.8-1.7 1.3-2.8 1.3h-56.8c-1.8 0-3.3-1.2-3.6-2.9l-2.6-14.9c-14 14.8-34.1 22.5-56.7 22.5-43-0.1-69-32.8-69.1-67.9-0.1-28.3 12.6-49.9 34.3-63.6 20.9-13.3 49.9-19.7 84.6-20.2-0.7-9.7-4.5-22.1-33.3-22.5-19.8-0.1-41.4 7.1-54 14.8-1 0.6-2.2 0.7-3.2 0.3-1-0.4-1.8-1.3-2.1-2.3l-11.6-41.6c-0.5-1.6 0.2-3.2 1.6-4.1 14.6-8.4 42.9-19.4 80.5-19.4 34.4 0 57.9 10.6 72.4 28.1 14.4 17.4 19.8 40.9 19.8 66.1zm-68-41.1c-14.9 0.3-27.8 2.3-36.8 6.5-9.7 4.8-14.8 11.1-14.9 21.7 0.2 14.4 8.5 20.1 21.3 20.5 13.6 0.1 25.7-9.4 29.2-20.5 0.8-3 1.2-6.4 1.2-9.9zm1045.4 91c0.3 1.1 0 2.2-0.6 3-0.7 0.9-1.7 1.3-2.8 1.3h-56.8c-1.8 0-3.3-1.2-3.6-2.9l-2.6-14.8c-14 14.7-34.1 22.5-56.7 22.5-43-0.1-69-32.9-69.1-68-0.1-28.3 12.6-49.8 34.2-63.5 21-13.4 50-19.8 84.7-20.2-0.7-9.8-4.5-22.1-33.3-22.6-19.8 0-41.4 7.1-54 14.9-1 0.6-2.2 0.7-3.2 0.3-1-0.5-1.8-1.3-2.1-2.4l-11.7-41.6c-0.4-1.5 0.3-3.2 1.7-4 14.6-8.5 42.9-19.4 80.5-19.4 34.4-0.1 57.9 10.6 72.3 28.1 14.5 17.4 19.9 40.9 19.9 66v73.4c0 19.7 0.8 38.9 3.2 49.9zm-71.2-91c-14.9 0.3-27.8 2.3-36.8 6.5-9.7 4.8-14.8 11.1-14.9 21.7 0.2 14.4 8.5 20.1 21.3 20.5 13.6 0.1 25.7-9.4 29.2-20.5 0.8-3 1.2-6.4 1.2-9.9zm448.3-110.4v46.4c0 0.9-0.3 1.8-1 2.5-0.7 0.6-1.6 1-2.5 1h-41.6v69.7c0 12 1.7 20.3 4.9 25 3.2 4.7 7.7 7 16.4 7.1 8.6-0.1 12.2-0.4 17.8-1.6 1.1-0.3 2.2 0 3 0.6 0.8 0.7 1.3 1.7 1.4 2.8l0.4 47.6c0 1.5-0.9 2.9-2.3 3.4-8.6 3.1-24.1 5.6-41.9 5.6-21 0-38.9-7.3-50.2-18.5-12.5-13.1-18.3-33.5-18.3-62.4v-79.3h-27.1c-1 0-1.9-0.4-2.6-1 0 0-1-1.8-1-5.1v-43.8c0-0.9 0.4-1.8 1-2.5 0.7-0.6 1.6-1 2.6-1h27.1v-34.5c0-1.6 1.1-3 2.6-3.5l61.7-16.9c1.1-0.3 2.2-0.1 3.1 0.6 0.9 0.6 1.4 1.7 1.4 2.8v51.5h41.6c0.9 0 1.8 0.4 2.5 1 0.6 0.7 1 1.6 1 2.5zm-693.6-2.4c0.7 0.7 1 1.7 1 2.6-0.8 13.2-1.6 30.1-1.6 60.2v112.6c0 39.3-8 72.4-32.3 93.7-23 19.9-46.3 25.7-76.6 25.7-27.3 0-63.2-5.3-82.3-15.8-1.4-0.7-2.1-2.4-1.7-4l12.4-48c0.3-1.1 1.1-1.9 2.1-2.3 1-0.5 2.2-0.4 3.1 0.2 12.3 7.1 33.8 14.8 57.1 14.8 28.6-0.5 48.6-13.8 49-49.8v-4.1c-12.8 13.4-31 20.9-51.9 20.9-26 0-48.5-10.6-64.3-28.8-15.9-18.1-25-43.6-25-73.3 0-33.4 10.7-61 28.1-80.3 17.3-19.2 41.4-30 67.4-30 24.7-0.1 42.2 9.4 53.5 23.5l1.3-15.7c0.1-1.8 1.7-3.2 3.5-3.2h54.6c1 0 2 0.4 2.6 1.1zm-70.7 84.7c0-3.4-0.4-7.2-1.1-10.5-4.4-15.5-14.8-25.1-30.5-25.2-20.7 0-37.6 18.2-37.8 54 0.2 29.3 13.9 50.2 37.4 50.2 15 0 26.4-9.6 30.2-22.7 1.3-4.4 1.8-10.8 1.8-16zm609.4-33.2c2.5 10 3.9 21.2 3.9 33.7v119.6c0 0.9-0.5 1.8-1.1 2.5-0.7 0.7-1.6 1.1-2.5 1.1h-63c-0.9 0-1.8-0.4-2.5-1.1-0.7-0.7-1-1.6-1-2.5v-112.2c-0.5-25.6-8.1-40.1-28.4-40.3-15.4 0-24.6 10.6-28.9 21.4-1.3 3.2-1.9 8.8-1.8 14.4v116.7c0 0.9-0.4 1.8-1.1 2.5-0.6 0.7-1.6 1.1-2.5 1.1h-62.9c-0.9 0-1.8-0.4-2.5-1.1-0.7-0.7-1.1-1.6-1.1-2.5v-137.8c0-25.2-0.8-46.2-1.7-64.4 0-1 0.3-1.9 1-2.6 0.7-0.7 1.6-1.1 2.6-1.1h54.7c1.8 0 3.3 1.4 3.5 3.2l2.1 20.3c10.6-13.1 30.7-28.1 61-28.1 21.5-0.1 40.8 7.3 54.4 22.5 7.4 8.2 13 18.5 16.7 31zm-440.2-59.3c0.6 0.7 1 1.6 1 2.5v209.9c0 0.9-0.4 1.9-1 2.5-0.7 0.7-1.6 1.1-2.5 1.1h-63c-0.9 0-1.8-0.4-2.5-1.1-0.7-0.6-1.1-1.6-1.1-2.5v-209.9c0-0.9 0.4-1.8 1.1-2.5 0.7-0.6 1.6-1 2.5-1h63c0.9 0 1.8 0.4 2.5 1zm-659.4-84.2c0.7 0.7 1.1 1.6 1.1 2.6v294.2c0 0.9-0.4 1.9-1.1 2.5-0.6 0.7-1.5 1.1-2.5 1.1h-62.9c-0.9 0-1.9-0.4-2.5-1.1-0.7-0.6-1.1-1.6-1.1-2.5v-294.2c0-1 0.4-1.9 1.1-2.6 0.6-0.6 1.6-1 2.5-1h62.9c1 0 1.9 0.4 2.5 1zm303.9 119.4c15 19.9 21.4 45.9 21.4 71.5 0 11-1.3 20.7-2.3 25.4-0.3 1.7-1.7 2.9-3.4 2.9h-126.4c3.9 20.9 26 31.3 53.1 31.4 21.2 0 38.1-2.8 54.8-8.4 1-0.4 2-0.3 2.9 0.3 0.9 0.5 1.5 1.3 1.7 2.3l8.3 42.7c0.3 1.6-0.6 3.3-2.1 3.9-21.4 8.9-47 13.1-74.7 13.1-35 0-63.1-10.1-82.3-28.8-19.2-18.6-29.4-45.4-29.3-77.8 0-26.4 8.2-54.2 25.7-75.5 17.3-21.4 44.1-36.2 80.1-36.1 33.6-0.1 57.5 13.3 72.5 33.1zm-44.3 49.7c-1.1-14.6-7.8-33.8-31.5-33.8-22.3-0.2-32.4 18.5-35.2 33.8zm-159.7-169.1c0.7 0.7 1.1 1.6 1.1 2.6v294.2c0 0.9-0.4 1.9-1.1 2.5-0.6 0.7-1.6 1.1-2.5 1.1h-62.9c-1 0-1.9-0.4-2.6-1.1-0.6-0.6-1-1.6-1-2.5v-294.2c0-1 0.4-1.9 1-2.6 0.7-0.6 1.6-1 2.6-1h62.9c1 0 1.9 0.4 2.5 1z"/></svg>